<svg width="18" height="24" viewBox="0 0 18 24" fill="none" xmlns="http://www.w3.org/2000/svg">
<g id="label-paired / md / gear-api-md / fill" clip-path="url(#clip0_5227_477)">
<path id="icon" d="M10.75 15.875C11.5 15.875 12.125 16.5 12.125 17.25V20.5C12.125 20.8438 11.8438 21.125 11.5 21.125C11.1562 21.125 10.875 20.8438 10.875 20.5V19.625H10.125V20.5C10.125 20.8438 9.84375 21.125 9.5 21.125C9.15625 21.125 8.875 20.8438 8.875 20.5V17.25C8.875 16.5 9.5 15.875 10.25 15.875H10.75ZM14.5 15.875C15.5312 15.875 16.375 16.7188 16.375 17.75C16.375 18.7812 15.5312 19.625 14.5 19.625H14.125V20.5C14.125 20.8438 13.8438 21.125 13.5 21.125C13.1562 21.125 12.875 20.8438 12.875 20.5V16.5C12.875 16.1562 13.1562 15.875 13.5 15.875H14.5ZM17.5 15.875C17.8438 15.875 18.125 16.1562 18.125 16.5V20.5C18.125 20.8438 17.8438 21.125 17.5 21.125C17.1562 21.125 16.875 20.8438 16.875 20.5V16.5C16.875 16.1562 17.1562 15.875 17.5 15.875ZM10.25 17.125C10.1875 17.125 10.125 17.1875 10.125 17.25V18.375H10.875V17.25C10.875 17.1875 10.8125 17.125 10.75 17.125H10.25ZM14.125 18.375H14.5C14.8438 18.375 15.125 18.0938 15.125 17.75C15.125 17.4062 14.8438 17.125 14.5 17.125H14.125V18.375ZM9.9375 3.5C10.4062 3.5 10.8125 3.84375 10.9062 4.3125L11.375 6.5C11.8125 6.6875 12.2188 6.90625 12.5938 7.1875L14.7188 6.5C15.1562 6.34375 15.6562 6.53125 15.9062 6.9375L16.8125 8.5625C17.0625 8.96875 16.9688 9.5 16.625 9.8125L14.9688 11.2812C14.9688 11.5312 15 11.75 15 12C15 12.25 14.9688 12.4688 14.9688 12.7188L16.625 14.1875C16.7188 14.2812 16.8125 14.375 16.8438 14.5H9.5C8.40625 14.5 7.5 15.4062 7.5 16.5V17.8125C6.71875 17.625 6.03125 17.2812 5.40625 16.8125L3.28125 17.5C2.84375 17.6562 2.34375 17.4688 2.09375 17.0625L1.1875 15.4375C0.9375 15.0312 1.03125 14.5 1.375 14.1875L3.03125 12.7188C3.03125 12.4688 3 12.25 3 12C3 11.75 3.03125 11.5312 3.03125 11.2812L1.375 9.8125C1.03125 9.5 0.9375 8.96875 1.1875 8.5625L2.09375 6.9375C2.34375 6.53125 2.84375 6.34375 3.28125 6.5L5.40625 7.1875C5.78125 6.90625 6.1875 6.6875 6.625 6.5L7.09375 4.3125C7.1875 3.84375 7.59375 3.5 8.0625 3.5H9.9375ZM9 9.375C7.5625 9.375 6.375 10.5625 6.375 12C6.375 12.75 6.6875 13.4062 7.1875 13.875C7.78125 13.3438 8.625 13 9.5 13H11.4375C11.5625 12.6875 11.625 12.3438 11.625 12C11.625 10.5625 10.4375 9.375 9 9.375Z" fill="black" fill-opacity="0.72"/>
</g>
<defs>
<clipPath id="clip0_5227_477">
<rect width="18" height="24" fill="white"/>
</clipPath>
</defs>
</svg>
